<svg viewBox="0 0 60 60" fill="none" xmlns="http://www.w3.org/2000/svg">
<circle cx="30" cy="30" r="30" fill="#F6F7FA"/>
<path d="M29.9323 45.8472C29.9323 46.0668 29.9323 46.2824 29.92 46.5C19.6037 46.4939 11.25 38.2264 11.25 28.0209C11.25 27.8033 11.25 27.5857 11.2623 27.3701C21.5684 27.3743 29.9323 35.6458 29.9323 45.8472Z" fill="#377BE1"/>
<path d="M48.5937 28.0209C48.5937 38.2223 40.24 46.4979 29.9319 46.4979C29.9319 46.2803 29.9319 46.0627 29.9319 45.845C29.9319 35.6437 38.2835 27.368 48.5916 27.368C48.5896 27.5857 48.5937 27.8033 48.5937 28.0209Z" fill="#377BE1"/>
<path d="M29.9323 30.1232C31.2759 30.107 32.5848 29.6938 33.6941 28.9355C34.8035 28.1772 35.6638 27.1078 36.1668 25.8618C36.6698 24.6157 36.793 23.2487 36.521 21.9328C36.249 20.6169 35.5938 19.4108 34.6379 18.4664C33.6821 17.5219 32.4683 16.8813 31.1492 16.625C29.8301 16.3688 28.4647 16.5084 27.2248 17.0263C25.9849 17.5442 24.9258 18.4172 24.1809 19.5356C23.436 20.6539 23.0384 21.9676 23.0383 23.3114C23.0432 24.2115 23.2254 25.1018 23.5746 25.9314C23.9237 26.761 24.433 27.5137 25.0733 28.1463C25.7136 28.779 26.4723 29.2792 27.306 29.6184C28.1398 29.9576 29.0322 30.1292 29.9323 30.1232Z" fill="#00CD69"/>
</svg>
